# xmcd
#
# Track frame offsets:
#	150
#	17400
#	31425
#	47025
#	69750
#	84825
#	99450
#	113700
#	129600
#	145350
#	162825
#	177975
#	197175
#	218700
#	232575
#	247350
#
# Disc length: 3454 seconds
#
# Revision: 1
# Processed by: cddbd v1.5.1PL2 Copyright (c) Steve Scherf et al.
# Submitted via: audiograbber 1.83.01
#
DISCID=d20d7c10
DTITLE=Sybersound - Party Tyme - Country Classics 2 (SY-1076)
DYEAR=1900
DGENRE=Karaoke
TTITLE0=Glen Campbell - Rhinestone Cowboy
TTITLE1=John Denver - Thank God I'm a Country Boy
TTITLE2=Loretta Lynn - Coal Miner's Daughter
TTITLE3=Kenny Rodgers - Through The Years
TTITLE4=Eddie Rabbit - I Love A Rainy Night
TTITLE5=Dolly Parton - 9 to 5
TTITLE6=Glen Campbell - Wichita Lineman
TTITLE7=Mac Davis - Baby Don't Get Hooked On Me
TTITLE8=Olivia Newton-John - If You Love Me (Let Me Know)
TTITLE9=Johnny Lee - Lookin For Love
TTITLE10=Kenny Rogers - Ruby (Don't Take Your Love To Town)
TTITLE11=Willie Nelson - Mama Don't Let Your Babies Grow Up To Be Cowboys
TTITLE12=Bobby Gentry - Ode To Billy Joe
TTITLE13=Charlie Rich - Most Beautiful Girl In The World
TTITLE14=Johnny Paycheck - Take This Job and Shove It
TTITLE15=Anne Murray - Snowbird
EXTD=
EXTT0=
EXTT1=
EXTT2=
EXTT3=
EXTT4=
EXTT5=
EXTT6=
EXTT7=
EXTT8=
EXTT9=
EXTT10=
EXTT11=
EXTT12=
EXTT13=
EXTT14=
EXTT15=
PLAYORDER=
